<mxfile host="65bd71144e">
    <diagram id="tr8WCDj-hul7nBdrf4UF" name="Страница 1">
        <mxGraphModel dx="574" dy="446" grid="1" gridSize="10" guides="1" tooltips="1" connect="0" arrows="1" fold="1" page="1" pageScale="1" pageWidth="827" pageHeight="1169" math="0" shadow="0">
            <root>
                <mxCell id="0"/>
                <mxCell id="1" parent="0"/>
                <mxCell id="2" style="edgeStyle=orthogonalEdgeStyle;rounded=0;orthogonalLoop=1;jettySize=auto;html=1;" parent="1" source="3" edge="1">
                    <mxGeometry relative="1" as="geometry">
                        <mxPoint x="375" y="150" as="targetPoint"/>
                    </mxGeometry>
                </mxCell>
                <mxCell id="3" value="Запуск" style="rounded=1;whiteSpace=wrap;html=1;arcSize=50;" parent="1" vertex="1">
                    <mxGeometry x="305" y="20" width="140" height="40" as="geometry"/>
                </mxCell>
                <mxCell id="5" value="#include &amp;lt;iostream&amp;gt;&lt;br&gt;using namespace std;" style="strokeWidth=2;html=1;shape=mxgraph.flowchart.annotation_2;align=left;labelPosition=right;pointerEvents=1;" parent="1" vertex="1">
                    <mxGeometry x="458.01" y="40" width="20" height="80" as="geometry"/>
                </mxCell>
                <mxCell id="6" value="" style="endArrow=none;dashed=1;html=1;entryX=0;entryY=0.5;entryDx=0;entryDy=0;entryPerimeter=0;" parent="1" target="5" edge="1">
                    <mxGeometry width="50" height="50" relative="1" as="geometry">
                        <mxPoint x="375" y="80" as="sourcePoint"/>
                        <mxPoint x="465" y="70" as="targetPoint"/>
                    </mxGeometry>
                </mxCell>
                <mxCell id="7" value="Конец" style="rounded=1;whiteSpace=wrap;html=1;arcSize=50;" parent="1" vertex="1">
                    <mxGeometry x="305" y="2090" width="140" height="40" as="geometry"/>
                </mxCell>
                <mxCell id="10" value="return 0;&lt;br&gt;}" style="strokeWidth=2;html=1;shape=mxgraph.flowchart.annotation_2;align=left;labelPosition=right;pointerEvents=1;" parent="1" vertex="1">
                    <mxGeometry x="480.01" y="2040" width="20" height="60" as="geometry"/>
                </mxCell>
                <mxCell id="11" value="" style="endArrow=none;dashed=1;html=1;entryX=0;entryY=0.5;entryDx=0;entryDy=0;entryPerimeter=0;" parent="1" edge="1">
                    <mxGeometry width="50" height="50" relative="1" as="geometry">
                        <mxPoint x="380.01" y="2070" as="sourcePoint"/>
                        <mxPoint x="480.01" y="2070" as="targetPoint"/>
                    </mxGeometry>
                </mxCell>
                <mxCell id="383" style="edgeStyle=orthogonalEdgeStyle;html=1;rounded=0;" parent="1" source="354" target="382" edge="1">
                    <mxGeometry relative="1" as="geometry"/>
                </mxCell>
                <mxCell id="354" value="int main() {" style="ellipse;whiteSpace=wrap;html=1;" parent="1" vertex="1">
                    <mxGeometry x="315" y="150" width="120" height="60" as="geometry"/>
                </mxCell>
                <mxCell id="386" style="edgeStyle=orthogonalEdgeStyle;rounded=0;html=1;" parent="1" source="382" target="384" edge="1">
                    <mxGeometry relative="1" as="geometry"/>
                </mxCell>
                <mxCell id="382" value="setlocale(LC_ALL, &quot;Russian&quot;);" style="rounded=0;whiteSpace=wrap;html=1;" parent="1" vertex="1">
                    <mxGeometry x="300" y="250" width="150" height="40" as="geometry"/>
                </mxCell>
                <mxCell id="384" value="string st;" style="rounded=0;whiteSpace=wrap;html=1;" parent="1" vertex="1">
                    <mxGeometry x="300" y="310" width="150" height="40" as="geometry"/>
                </mxCell>
                <mxCell id="391" style="edgeStyle=orthogonalEdgeStyle;rounded=0;html=1;" parent="1" target="390" edge="1">
                    <mxGeometry relative="1" as="geometry">
                        <mxPoint x="374.99" y="350" as="sourcePoint"/>
                    </mxGeometry>
                </mxCell>
                <mxCell id="393" style="edgeStyle=orthogonalEdgeStyle;rounded=0;html=1;" parent="1" source="390" target="392" edge="1">
                    <mxGeometry relative="1" as="geometry"/>
                </mxCell>
                <mxCell id="390" value="cout &amp;lt;&amp;lt; &quot;Введите строку: &quot;;" style="shape=parallelogram;perimeter=parallelogramPerimeter;whiteSpace=wrap;html=1;fixedSize=1;" parent="1" vertex="1">
                    <mxGeometry x="188.37" y="380" width="373.25" height="40" as="geometry"/>
                </mxCell>
                <mxCell id="394" style="edgeStyle=orthogonalEdgeStyle;rounded=0;html=1;" parent="1" source="392" edge="1">
                    <mxGeometry relative="1" as="geometry">
                        <mxPoint x="374.99" y="500" as="targetPoint"/>
                    </mxGeometry>
                </mxCell>
                <mxCell id="392" value="cin &amp;gt;&amp;gt; st;" style="shape=parallelogram;perimeter=parallelogramPerimeter;whiteSpace=wrap;html=1;fixedSize=1;" parent="1" vertex="1">
                    <mxGeometry x="188.37" y="440" width="373.25" height="40" as="geometry"/>
                </mxCell>
                <mxCell id="527" style="edgeStyle=orthogonalEdgeStyle;html=1;" parent="1" source="420" target="578" edge="1">
                    <mxGeometry relative="1" as="geometry">
                        <mxPoint x="1620" y="210" as="targetPoint"/>
                    </mxGeometry>
                </mxCell>
                <mxCell id="420" value="&lt;div&gt;int Search(string str, string sbstr)&lt;/div&gt;" style="ellipse;whiteSpace=wrap;html=1;" parent="1" vertex="1">
                    <mxGeometry x="1560" y="120" width="120" height="60" as="geometry"/>
                </mxCell>
                <mxCell id="450" style="edgeStyle=orthogonalEdgeStyle;rounded=0;html=1;entryX=-0.005;entryY=0.525;entryDx=0;entryDy=0;entryPerimeter=0;" parent="1" edge="1">
                    <mxGeometry relative="1" as="geometry">
                        <Array as="points">
                            <mxPoint x="1995" y="600"/>
                            <mxPoint x="1840" y="600"/>
                            <mxPoint x="1840" y="387"/>
                        </Array>
                        <mxPoint x="1899.0500000000002" y="387" as="targetPoint"/>
                    </mxGeometry>
                </mxCell>
                <mxCell id="488" style="edgeStyle=orthogonalEdgeStyle;rounded=0;html=1;" parent="1" source="486" target="631" edge="1">
                    <mxGeometry relative="1" as="geometry">
                        <mxPoint x="374.99" y="560" as="targetPoint"/>
                    </mxGeometry>
                </mxCell>
                <mxCell id="486" value="string sbst;" style="rounded=0;whiteSpace=wrap;html=1;" parent="1" vertex="1">
                    <mxGeometry x="299.99" y="500" width="150" height="40" as="geometry"/>
                </mxCell>
                <mxCell id="576" style="edgeStyle=orthogonalEdgeStyle;rounded=0;html=1;" parent="1" target="7" edge="1">
                    <mxGeometry relative="1" as="geometry">
                        <mxPoint x="375.01" y="2040" as="sourcePoint"/>
                    </mxGeometry>
                </mxCell>
                <mxCell id="580" style="edgeStyle=none;html=1;" edge="1" parent="1" source="578" target="579">
                    <mxGeometry relative="1" as="geometry"/>
                </mxCell>
                <mxCell id="578" value="int st, sbst;" style="rounded=0;whiteSpace=wrap;html=1;" vertex="1" parent="1">
                    <mxGeometry x="1560" y="215" width="120" height="40" as="geometry"/>
                </mxCell>
                <mxCell id="582" style="edgeStyle=none;html=1;" edge="1" parent="1" source="579" target="581">
                    <mxGeometry relative="1" as="geometry"/>
                </mxCell>
                <mxCell id="579" value="st = str.size();" style="rounded=0;whiteSpace=wrap;html=1;" vertex="1" parent="1">
                    <mxGeometry x="1560" y="275" width="120" height="40" as="geometry"/>
                </mxCell>
                <mxCell id="584" style="edgeStyle=none;html=1;" edge="1" parent="1" source="581" target="583">
                    <mxGeometry relative="1" as="geometry"/>
                </mxCell>
                <mxCell id="581" value="sbst = sbstr.size();" style="rounded=0;whiteSpace=wrap;html=1;" vertex="1" parent="1">
                    <mxGeometry x="1560" y="335" width="120" height="40" as="geometry"/>
                </mxCell>
                <mxCell id="586" style="edgeStyle=none;html=1;" edge="1" parent="1" source="583" target="585">
                    <mxGeometry relative="1" as="geometry"/>
                </mxCell>
                <mxCell id="583" value="int* d = new int[sbst];" style="rounded=0;whiteSpace=wrap;html=1;" vertex="1" parent="1">
                    <mxGeometry x="1560" y="395" width="120" height="40" as="geometry"/>
                </mxCell>
                <mxCell id="588" style="edgeStyle=none;html=1;" edge="1" parent="1" source="585" target="587">
                    <mxGeometry relative="1" as="geometry"/>
                </mxCell>
                <mxCell id="585" value="int i = 0;" style="rounded=0;whiteSpace=wrap;html=1;" vertex="1" parent="1">
                    <mxGeometry x="1560" y="455" width="120" height="40" as="geometry"/>
                </mxCell>
                <mxCell id="590" style="edgeStyle=none;html=1;" edge="1" parent="1" source="587" target="589">
                    <mxGeometry relative="1" as="geometry"/>
                </mxCell>
                <mxCell id="587" value="int j = -1;" style="rounded=0;whiteSpace=wrap;html=1;" vertex="1" parent="1">
                    <mxGeometry x="1560" y="515" width="120" height="40" as="geometry"/>
                </mxCell>
                <mxCell id="592" style="edgeStyle=none;html=1;" edge="1" parent="1" source="589" target="591">
                    <mxGeometry relative="1" as="geometry"/>
                </mxCell>
                <mxCell id="589" value="d[0] = -1;" style="rounded=0;whiteSpace=wrap;html=1;" vertex="1" parent="1">
                    <mxGeometry x="1560" y="575" width="120" height="40" as="geometry"/>
                </mxCell>
                <mxCell id="594" style="html=1;rounded=0;edgeStyle=orthogonalEdgeStyle;" edge="1" parent="1" source="591" target="593">
                    <mxGeometry relative="1" as="geometry"/>
                </mxCell>
                <mxCell id="591" value="while (i &amp;lt; sbst - 1)" style="rhombus;whiteSpace=wrap;html=1;" vertex="1" parent="1">
                    <mxGeometry x="1550" y="645" width="140" height="70" as="geometry"/>
                </mxCell>
                <mxCell id="596" style="edgeStyle=orthogonalEdgeStyle;rounded=0;html=1;" edge="1" parent="1" source="593" target="595">
                    <mxGeometry relative="1" as="geometry"/>
                </mxCell>
                <mxCell id="599" style="edgeStyle=orthogonalEdgeStyle;rounded=0;html=1;" edge="1" parent="1" source="593" target="598">
                    <mxGeometry relative="1" as="geometry">
                        <Array as="points">
                            <mxPoint x="1749.8600000000001" y="790"/>
                            <mxPoint x="1749.8600000000001" y="955"/>
                            <mxPoint x="1619.8600000000001" y="955"/>
                        </Array>
                    </mxGeometry>
                </mxCell>
                <mxCell id="593" value="while ((j &amp;gt;= 0) &amp;amp;&amp;amp; (sbstr[j] != sbstr[i]))" style="rhombus;whiteSpace=wrap;html=1;" vertex="1" parent="1">
                    <mxGeometry x="1530.0700000000002" y="755" width="179.86" height="70" as="geometry"/>
                </mxCell>
                <mxCell id="597" style="edgeStyle=orthogonalEdgeStyle;rounded=0;html=1;entryX=-0.001;entryY=0.517;entryDx=0;entryDy=0;entryPerimeter=0;" edge="1" parent="1" source="595" target="593">
                    <mxGeometry relative="1" as="geometry">
                        <Array as="points">
                            <mxPoint x="1619.8600000000001" y="935"/>
                            <mxPoint x="1489.8600000000001" y="935"/>
                            <mxPoint x="1489.8600000000001" y="791"/>
                        </Array>
                    </mxGeometry>
                </mxCell>
                <mxCell id="595" value="j = d[j];" style="rounded=0;whiteSpace=wrap;html=1;" vertex="1" parent="1">
                    <mxGeometry x="1565" y="865" width="110" height="40" as="geometry"/>
                </mxCell>
                <mxCell id="601" style="edgeStyle=orthogonalEdgeStyle;rounded=0;html=1;" edge="1" parent="1" source="598" target="600">
                    <mxGeometry relative="1" as="geometry"/>
                </mxCell>
                <mxCell id="598" value="i++;" style="rounded=0;whiteSpace=wrap;html=1;" vertex="1" parent="1">
                    <mxGeometry x="1565" y="975" width="110" height="40" as="geometry"/>
                </mxCell>
                <mxCell id="603" style="edgeStyle=orthogonalEdgeStyle;rounded=0;html=1;" edge="1" parent="1" source="600" target="602">
                    <mxGeometry relative="1" as="geometry"/>
                </mxCell>
                <mxCell id="600" value="j++;" style="rounded=0;whiteSpace=wrap;html=1;" vertex="1" parent="1">
                    <mxGeometry x="1565" y="1035" width="110" height="40" as="geometry"/>
                </mxCell>
                <mxCell id="605" value="1" style="edgeStyle=orthogonalEdgeStyle;rounded=0;html=1;" edge="1" parent="1" source="602" target="604">
                    <mxGeometry x="-0.4146" relative="1" as="geometry">
                        <mxPoint as="offset"/>
                    </mxGeometry>
                </mxCell>
                <mxCell id="607" value="0" style="edgeStyle=orthogonalEdgeStyle;rounded=0;html=1;" edge="1" parent="1" source="602" target="606">
                    <mxGeometry x="-0.5474" relative="1" as="geometry">
                        <Array as="points">
                            <mxPoint x="1734.8600000000001" y="1135"/>
                        </Array>
                        <mxPoint as="offset"/>
                    </mxGeometry>
                </mxCell>
                <mxCell id="602" value="if (sbstr[i] == sbstr[j])" style="rhombus;whiteSpace=wrap;html=1;" vertex="1" parent="1">
                    <mxGeometry x="1555" y="1100" width="130" height="70" as="geometry"/>
                </mxCell>
                <mxCell id="608" style="edgeStyle=orthogonalEdgeStyle;rounded=0;html=1;" edge="1" parent="1" source="604">
                    <mxGeometry relative="1" as="geometry">
                        <mxPoint x="1609.8600000000001" y="1265" as="targetPoint"/>
                        <Array as="points">
                            <mxPoint x="1494.8600000000001" y="1265"/>
                        </Array>
                    </mxGeometry>
                </mxCell>
                <mxCell id="604" value="d[i] = d[j];" style="rounded=0;whiteSpace=wrap;html=1;" vertex="1" parent="1">
                    <mxGeometry x="1440" y="1195" width="110" height="40" as="geometry"/>
                </mxCell>
                <mxCell id="609" style="edgeStyle=orthogonalEdgeStyle;rounded=0;html=1;" edge="1" parent="1" source="606">
                    <mxGeometry relative="1" as="geometry">
                        <mxPoint x="1609.8600000000001" y="1265" as="targetPoint"/>
                        <Array as="points">
                            <mxPoint x="1734.8600000000001" y="1265"/>
                        </Array>
                    </mxGeometry>
                </mxCell>
                <mxCell id="606" value="d[i] = j;" style="rounded=0;whiteSpace=wrap;html=1;" vertex="1" parent="1">
                    <mxGeometry x="1680" y="1195" width="110" height="40" as="geometry"/>
                </mxCell>
                <mxCell id="613" style="edgeStyle=orthogonalEdgeStyle;rounded=0;html=1;" edge="1" parent="1" source="610" target="612">
                    <mxGeometry relative="1" as="geometry"/>
                </mxCell>
                <mxCell id="610" value="i = 0;" style="rounded=0;whiteSpace=wrap;html=1;" vertex="1" parent="1">
                    <mxGeometry x="1555" y="1305" width="110" height="40" as="geometry"/>
                </mxCell>
                <mxCell id="611" value="" style="endArrow=classic;html=1;rounded=0;" edge="1" parent="1" target="610">
                    <mxGeometry width="50" height="50" relative="1" as="geometry">
                        <mxPoint x="1609.8600000000001" y="1265" as="sourcePoint"/>
                        <mxPoint x="1699.8600000000001" y="1295" as="targetPoint"/>
                    </mxGeometry>
                </mxCell>
                <mxCell id="615" style="edgeStyle=orthogonalEdgeStyle;rounded=0;html=1;" edge="1" parent="1" source="612" target="614">
                    <mxGeometry relative="1" as="geometry"/>
                </mxCell>
                <mxCell id="612" value="j = 0;" style="rounded=0;whiteSpace=wrap;html=1;" vertex="1" parent="1">
                    <mxGeometry x="1555" y="1375" width="110" height="40" as="geometry"/>
                </mxCell>
                <mxCell id="617" style="edgeStyle=orthogonalEdgeStyle;rounded=0;html=1;" edge="1" parent="1" source="614" target="616">
                    <mxGeometry relative="1" as="geometry"/>
                </mxCell>
                <mxCell id="630" style="edgeStyle=orthogonalEdgeStyle;rounded=0;html=1;" edge="1" parent="1" source="614" target="623">
                    <mxGeometry relative="1" as="geometry">
                        <Array as="points">
                            <mxPoint x="1780" y="1490"/>
                            <mxPoint x="1780" y="1800"/>
                            <mxPoint x="1610" y="1800"/>
                        </Array>
                    </mxGeometry>
                </mxCell>
                <mxCell id="614" value="for (i = 0, j = 0; (i &amp;lt;= st - 1) &amp;amp;&amp;amp; (j &amp;lt;= sbst - 1); i++, j++)" style="shape=hexagon;perimeter=hexagonPerimeter2;whiteSpace=wrap;html=1;fixedSize=1;" vertex="1" parent="1">
                    <mxGeometry x="1470" y="1460" width="280" height="60" as="geometry"/>
                </mxCell>
                <mxCell id="619" style="edgeStyle=orthogonalEdgeStyle;rounded=0;html=1;" edge="1" parent="1" source="616" target="618">
                    <mxGeometry relative="1" as="geometry"/>
                </mxCell>
                <mxCell id="621" style="edgeStyle=orthogonalEdgeStyle;rounded=0;html=1;entryX=-0.003;entryY=0.506;entryDx=0;entryDy=0;entryPerimeter=0;" edge="1" parent="1" source="616" target="614">
                    <mxGeometry relative="1" as="geometry">
                        <Array as="points">
                            <mxPoint x="1730" y="1595"/>
                            <mxPoint x="1730" y="1780"/>
                            <mxPoint x="1420" y="1780"/>
                            <mxPoint x="1420" y="1490"/>
                        </Array>
                    </mxGeometry>
                </mxCell>
                <mxCell id="616" value="while ((j &amp;gt;= 0) &amp;amp;&amp;amp; (sbstr[j] != str[i]))" style="rhombus;whiteSpace=wrap;html=1;" vertex="1" parent="1">
                    <mxGeometry x="1530.07" y="1560" width="160" height="70" as="geometry"/>
                </mxCell>
                <mxCell id="620" style="edgeStyle=orthogonalEdgeStyle;rounded=0;html=1;entryX=0.005;entryY=0.493;entryDx=0;entryDy=0;entryPerimeter=0;" edge="1" parent="1" source="618" target="616">
                    <mxGeometry relative="1" as="geometry">
                        <Array as="points">
                            <mxPoint x="1610" y="1740"/>
                            <mxPoint x="1490" y="1740"/>
                            <mxPoint x="1490" y="1595"/>
                        </Array>
                    </mxGeometry>
                </mxCell>
                <mxCell id="618" value="j = d[j];" style="rounded=0;whiteSpace=wrap;html=1;" vertex="1" parent="1">
                    <mxGeometry x="1560.07" y="1670" width="100" height="50" as="geometry"/>
                </mxCell>
                <mxCell id="629" style="edgeStyle=orthogonalEdgeStyle;rounded=0;html=1;" edge="1" parent="1" source="623" target="624">
                    <mxGeometry relative="1" as="geometry"/>
                </mxCell>
                <mxCell id="623" value="delete[] d;" style="rounded=0;whiteSpace=wrap;html=1;" vertex="1" parent="1">
                    <mxGeometry x="1560.07" y="1820" width="100" height="50" as="geometry"/>
                </mxCell>
                <mxCell id="627" value="1" style="edgeStyle=orthogonalEdgeStyle;rounded=0;html=1;" edge="1" parent="1" source="624" target="625">
                    <mxGeometry relative="1" as="geometry">
                        <Array as="points">
                            <mxPoint x="1500" y="1940"/>
                        </Array>
                    </mxGeometry>
                </mxCell>
                <mxCell id="628" value="0" style="edgeStyle=orthogonalEdgeStyle;rounded=0;html=1;" edge="1" parent="1" source="624" target="626">
                    <mxGeometry relative="1" as="geometry">
                        <Array as="points">
                            <mxPoint x="1730" y="1940"/>
                        </Array>
                    </mxGeometry>
                </mxCell>
                <mxCell id="624" value="if (j == sbst)" style="rhombus;whiteSpace=wrap;html=1;" vertex="1" parent="1">
                    <mxGeometry x="1570" y="1900" width="80" height="80" as="geometry"/>
                </mxCell>
                <mxCell id="625" value="return i - j;" style="ellipse;whiteSpace=wrap;html=1;" vertex="1" parent="1">
                    <mxGeometry x="1450" y="1970" width="100" height="60" as="geometry"/>
                </mxCell>
                <mxCell id="626" value="else return -1;" style="ellipse;whiteSpace=wrap;html=1;" vertex="1" parent="1">
                    <mxGeometry x="1680" y="1970" width="100" height="60" as="geometry"/>
                </mxCell>
                <mxCell id="633" style="edgeStyle=orthogonalEdgeStyle;rounded=0;html=1;" edge="1" parent="1" source="631" target="632">
                    <mxGeometry relative="1" as="geometry"/>
                </mxCell>
                <mxCell id="631" value="string* st2 = new string[st.size()];" style="rounded=0;whiteSpace=wrap;html=1;" vertex="1" parent="1">
                    <mxGeometry x="299.99" y="565" width="150" height="40" as="geometry"/>
                </mxCell>
                <mxCell id="635" style="edgeStyle=orthogonalEdgeStyle;rounded=0;html=1;" edge="1" parent="1" source="632" target="634">
                    <mxGeometry relative="1" as="geometry"/>
                </mxCell>
                <mxCell id="632" value="cout &amp;lt;&amp;lt; &quot;Введите подстроку: &quot;;" style="shape=parallelogram;perimeter=parallelogramPerimeter;whiteSpace=wrap;html=1;fixedSize=1;" vertex="1" parent="1">
                    <mxGeometry x="188.37" y="630" width="373.25" height="40" as="geometry"/>
                </mxCell>
                <mxCell id="637" style="edgeStyle=orthogonalEdgeStyle;rounded=0;html=1;" edge="1" parent="1" source="634" target="636">
                    <mxGeometry relative="1" as="geometry"/>
                </mxCell>
                <mxCell id="634" value="cin &amp;gt;&amp;gt; sbst;" style="shape=parallelogram;perimeter=parallelogramPerimeter;whiteSpace=wrap;html=1;fixedSize=1;" vertex="1" parent="1">
                    <mxGeometry x="188.36" y="690" width="373.25" height="40" as="geometry"/>
                </mxCell>
                <mxCell id="639" style="edgeStyle=orthogonalEdgeStyle;rounded=0;html=1;" edge="1" parent="1" source="636" target="638">
                    <mxGeometry relative="1" as="geometry"/>
                </mxCell>
                <mxCell id="636" value="int ist = Search(st, sbst);" style="rounded=0;whiteSpace=wrap;html=1;" vertex="1" parent="1">
                    <mxGeometry x="300" y="755" width="150" height="40" as="geometry"/>
                </mxCell>
                <mxCell id="641" value="1" style="edgeStyle=orthogonalEdgeStyle;rounded=0;html=1;" edge="1" parent="1" source="638" target="640">
                    <mxGeometry relative="1" as="geometry">
                        <Array as="points">
                            <mxPoint x="230" y="865"/>
                        </Array>
                    </mxGeometry>
                </mxCell>
                <mxCell id="644" value="0" style="edgeStyle=orthogonalEdgeStyle;rounded=0;html=1;" edge="1" parent="1" source="638">
                    <mxGeometry x="-0.8182" relative="1" as="geometry">
                        <mxPoint x="370" y="1060" as="targetPoint"/>
                        <Array as="points">
                            <mxPoint x="490" y="865"/>
                            <mxPoint x="490" y="1060"/>
                        </Array>
                        <mxPoint as="offset"/>
                    </mxGeometry>
                </mxCell>
                <mxCell id="638" value="if (ist == -1)" style="rhombus;whiteSpace=wrap;html=1;" vertex="1" parent="1">
                    <mxGeometry x="335" y="825" width="80" height="80" as="geometry"/>
                </mxCell>
                <mxCell id="643" style="edgeStyle=orthogonalEdgeStyle;rounded=0;html=1;" edge="1" parent="1" source="640" target="642">
                    <mxGeometry relative="1" as="geometry"/>
                </mxCell>
                <mxCell id="640" value="cout &amp;lt;&amp;lt; &quot;Не найден&quot;;" style="shape=parallelogram;perimeter=parallelogramPerimeter;whiteSpace=wrap;html=1;fixedSize=1;" vertex="1" parent="1">
                    <mxGeometry x="115" y="905" width="190" height="45" as="geometry"/>
                </mxCell>
                <mxCell id="645" style="edgeStyle=orthogonalEdgeStyle;rounded=0;html=1;" edge="1" parent="1" source="642">
                    <mxGeometry relative="1" as="geometry">
                        <mxPoint x="370" y="1060" as="targetPoint"/>
                        <Array as="points">
                            <mxPoint x="210" y="1060"/>
                        </Array>
                    </mxGeometry>
                </mxCell>
                <mxCell id="642" value="return 0;" style="ellipse;whiteSpace=wrap;html=1;" vertex="1" parent="1">
                    <mxGeometry x="160" y="985" width="100" height="50" as="geometry"/>
                </mxCell>
                <mxCell id="649" style="edgeStyle=orthogonalEdgeStyle;rounded=0;html=1;" edge="1" parent="1" source="646" target="648">
                    <mxGeometry relative="1" as="geometry"/>
                </mxCell>
                <mxCell id="646" value="int size = sbst.size();" style="rounded=0;whiteSpace=wrap;html=1;" vertex="1" parent="1">
                    <mxGeometry x="295" y="1090" width="150" height="40" as="geometry"/>
                </mxCell>
                <mxCell id="647" value="" style="endArrow=classic;html=1;rounded=0;" edge="1" parent="1" target="646">
                    <mxGeometry width="50" height="50" relative="1" as="geometry">
                        <mxPoint x="370" y="1060" as="sourcePoint"/>
                        <mxPoint x="390" y="1090" as="targetPoint"/>
                    </mxGeometry>
                </mxCell>
                <mxCell id="651" style="edgeStyle=orthogonalEdgeStyle;rounded=0;html=1;" edge="1" parent="1" source="648" target="650">
                    <mxGeometry relative="1" as="geometry"/>
                </mxCell>
                <mxCell id="654" style="edgeStyle=orthogonalEdgeStyle;rounded=0;html=1;" edge="1" parent="1" source="648" target="653">
                    <mxGeometry relative="1" as="geometry">
                        <Array as="points">
                            <mxPoint x="490" y="1185"/>
                            <mxPoint x="490" y="1340"/>
                            <mxPoint x="370" y="1340"/>
                        </Array>
                    </mxGeometry>
                </mxCell>
                <mxCell id="648" value="for (int i = 0; i &amp;lt; size; i++)" style="shape=hexagon;perimeter=hexagonPerimeter2;whiteSpace=wrap;html=1;fixedSize=1;" vertex="1" parent="1">
                    <mxGeometry x="285" y="1160" width="170" height="50" as="geometry"/>
                </mxCell>
                <mxCell id="652" style="edgeStyle=orthogonalEdgeStyle;rounded=0;html=1;entryX=-0.006;entryY=0.514;entryDx=0;entryDy=0;entryPerimeter=0;" edge="1" parent="1" source="650" target="648">
                    <mxGeometry relative="1" as="geometry">
                        <Array as="points">
                            <mxPoint x="370" y="1320"/>
                            <mxPoint x="250" y="1320"/>
                            <mxPoint x="250" y="1186"/>
                        </Array>
                    </mxGeometry>
                </mxCell>
                <mxCell id="650" value="*st2 += sbst[i];" style="rounded=0;whiteSpace=wrap;html=1;" vertex="1" parent="1">
                    <mxGeometry x="295" y="1260" width="150" height="40" as="geometry"/>
                </mxCell>
                <mxCell id="656" style="edgeStyle=orthogonalEdgeStyle;rounded=0;html=1;" edge="1" parent="1" source="653" target="655">
                    <mxGeometry relative="1" as="geometry"/>
                </mxCell>
                <mxCell id="659" style="edgeStyle=orthogonalEdgeStyle;rounded=0;html=1;" edge="1" parent="1" source="653" target="658">
                    <mxGeometry relative="1" as="geometry">
                        <Array as="points">
                            <mxPoint x="490" y="1390"/>
                            <mxPoint x="490" y="1520"/>
                            <mxPoint x="375" y="1520"/>
                        </Array>
                    </mxGeometry>
                </mxCell>
                <mxCell id="653" value="for (int i = 0; i &amp;lt; ist; i++)" style="shape=hexagon;perimeter=hexagonPerimeter2;whiteSpace=wrap;html=1;fixedSize=1;" vertex="1" parent="1">
                    <mxGeometry x="285" y="1365" width="170" height="50" as="geometry"/>
                </mxCell>
                <mxCell id="657" style="edgeStyle=orthogonalEdgeStyle;rounded=0;html=1;entryX=-0.006;entryY=0.497;entryDx=0;entryDy=0;entryPerimeter=0;" edge="1" parent="1" source="655" target="653">
                    <mxGeometry relative="1" as="geometry">
                        <Array as="points">
                            <mxPoint x="370" y="1500"/>
                            <mxPoint x="250" y="1500"/>
                            <mxPoint x="250" y="1390"/>
                        </Array>
                    </mxGeometry>
                </mxCell>
                <mxCell id="655" value="*st2 += st[i];" style="rounded=0;whiteSpace=wrap;html=1;" vertex="1" parent="1">
                    <mxGeometry x="295" y="1440" width="150" height="40" as="geometry"/>
                </mxCell>
                <mxCell id="661" style="edgeStyle=orthogonalEdgeStyle;rounded=0;html=1;" edge="1" parent="1" source="658" target="660">
                    <mxGeometry relative="1" as="geometry"/>
                </mxCell>
                <mxCell id="658" value="int i = ist;" style="rounded=0;whiteSpace=wrap;html=1;" vertex="1" parent="1">
                    <mxGeometry x="299.99" y="1550" width="150" height="40" as="geometry"/>
                </mxCell>
                <mxCell id="663" style="edgeStyle=orthogonalEdgeStyle;rounded=0;html=1;" edge="1" parent="1" source="660" target="662">
                    <mxGeometry relative="1" as="geometry"/>
                </mxCell>
                <mxCell id="668" style="edgeStyle=orthogonalEdgeStyle;rounded=0;html=1;" edge="1" parent="1" source="660" target="667">
                    <mxGeometry relative="1" as="geometry">
                        <Array as="points">
                            <mxPoint x="480" y="1650"/>
                            <mxPoint x="480" y="1860"/>
                            <mxPoint x="375" y="1860"/>
                        </Array>
                    </mxGeometry>
                </mxCell>
                <mxCell id="660" value="while (st[i + size] != '\0')" style="rhombus;whiteSpace=wrap;html=1;" vertex="1" parent="1">
                    <mxGeometry x="294.99" y="1620" width="160" height="60" as="geometry"/>
                </mxCell>
                <mxCell id="665" style="edgeStyle=orthogonalEdgeStyle;rounded=0;html=1;" edge="1" parent="1" source="662" target="664">
                    <mxGeometry relative="1" as="geometry"/>
                </mxCell>
                <mxCell id="662" value="*st2 += st[i + size];" style="rounded=0;whiteSpace=wrap;html=1;" vertex="1" parent="1">
                    <mxGeometry x="300" y="1720" width="150" height="40" as="geometry"/>
                </mxCell>
                <mxCell id="666" style="edgeStyle=orthogonalEdgeStyle;rounded=0;html=1;entryX=0.004;entryY=0.498;entryDx=0;entryDy=0;entryPerimeter=0;" edge="1" parent="1" source="664" target="660">
                    <mxGeometry relative="1" as="geometry">
                        <Array as="points">
                            <mxPoint x="375" y="1850"/>
                            <mxPoint x="260" y="1850"/>
                            <mxPoint x="260" y="1650"/>
                        </Array>
                    </mxGeometry>
                </mxCell>
                <mxCell id="664" value="i++;" style="rounded=0;whiteSpace=wrap;html=1;" vertex="1" parent="1">
                    <mxGeometry x="300" y="1780" width="150" height="40" as="geometry"/>
                </mxCell>
                <mxCell id="670" style="edgeStyle=orthogonalEdgeStyle;rounded=0;html=1;" edge="1" parent="1" source="667" target="669">
                    <mxGeometry relative="1" as="geometry"/>
                </mxCell>
                <mxCell id="667" value="cout &amp;lt;&amp;lt; &quot;Итоговая строка: &quot;;" style="shape=parallelogram;perimeter=parallelogramPerimeter;whiteSpace=wrap;html=1;fixedSize=1;" vertex="1" parent="1">
                    <mxGeometry x="279.99" y="1880" width="190" height="40" as="geometry"/>
                </mxCell>
                <mxCell id="672" style="edgeStyle=orthogonalEdgeStyle;rounded=0;html=1;entryX=0.5;entryY=0;entryDx=0;entryDy=0;entryPerimeter=0;" edge="1" parent="1" source="669" target="671">
                    <mxGeometry relative="1" as="geometry"/>
                </mxCell>
                <mxCell id="669" value="cout &amp;lt;&amp;lt; *st2;" style="shape=parallelogram;perimeter=parallelogramPerimeter;whiteSpace=wrap;html=1;fixedSize=1;" vertex="1" parent="1">
                    <mxGeometry x="279.99" y="1940" width="190" height="40" as="geometry"/>
                </mxCell>
                <mxCell id="671" value="delete[]st2;" style="rounded=0;whiteSpace=wrap;html=1;" vertex="1" parent="1">
                    <mxGeometry x="315" y="2010" width="120" height="30" as="geometry"/>
                </mxCell>
            </root>
        </mxGraphModel>
    </diagram>
</mxfile>